<svg width="453" height="689" viewBox="0 0 453 689" fill="none" xmlns="http://www.w3.org/2000/svg">
<g id="Frame 1" clip-path="url(#clip0_1_44)">
<g id="windmill">
<path id="Vector" d="M244.59 177.49C243.41 183.97 239.42 197.65 226.53 197.31C216.69 197.06 209.11 188.47 209.37 178.63L213.08 44.63L214.29 0.930001C214.29 0.930001 220.67 -11.16 227.02 43.04V43.24L244.66 171.76C244.943 173.661 244.919 175.596 244.59 177.49Z" fill="white"/>
<path id="Vector_2" d="M236 190.5H217.06V231.01H236V190.5Z" fill="white"/>
<path id="Vector_3" d="M233.96 221.39H219.39V239.17H233.96V221.39Z" fill="white"/>
<path id="Vector_4" d="M227.05 43.25C220.42 41.32 215.91 42.79 213.05 44.64L214.26 0.940009C214.26 0.940009 220.64 -11.15 226.99 43.05L227.05 43.25Z" fill="#6C63FF"/>
<path id="Vector_5" d="M236 202.61V231.01H217.06V203.17C223.069 200.568 229.847 200.367 236 202.61V202.61Z" fill="#6C63FF"/>
<path id="Vector_6" d="M280.59 292.9C275.28 289 264.74 279.42 270.69 267.98C275.23 259.25 286.27 256.19 295 260.74L413.81 322.82L452.56 343.06C452.56 343.06 460.62 354.06 409.12 336.06L408.93 336L285.68 295.5C283.857 294.906 282.14 294.028 280.59 292.9V292.9Z" fill="white"/>
<path id="Vector_7" d="M244.566 244.706L236.263 261.729L272.673 279.488L280.976 262.465L244.566 244.706Z" fill="white"/>
<path id="Vector_8" d="M245.801 264.113L252.188 251.018L236.207 243.224L229.82 256.319L245.801 264.113Z" fill="white"/>
<path id="Vector_9" d="M408.93 335.99C413.57 330.87 414.23 326.17 413.81 322.82L452.56 343.06C452.56 343.06 460.62 354.06 409.12 336.06L408.93 335.99Z" fill="#6C63FF"/>
<path id="Vector_10" d="M261.79 274.17L236.26 261.72L244.56 244.72L269.56 256.92C269.269 263.451 266.488 269.624 261.79 274.17V274.17Z" fill="#6C63FF"/>
<path id="Vector_11" d="M172.47 292.9C177.78 289 188.32 279.42 182.37 267.98C177.83 259.25 166.79 256.19 158.06 260.74L39.25 322.82L0.500013 343.06C0.500013 343.06 -7.55999 354.06 43.94 336.06L44.13 336L167.38 295.51C169.203 294.912 170.921 294.032 172.47 292.9V292.9Z" fill="white"/>
<path id="Vector_12" d="M208.495 244.703L172.085 262.461L180.387 279.484L216.798 261.726L208.495 244.703Z" fill="white"/>
<path id="Vector_13" d="M223.237 256.314L216.85 243.219L200.869 251.013L207.256 264.108L223.237 256.314Z" fill="white"/>
<path id="Vector_14" d="M44.13 335.99C39.49 330.87 38.83 326.17 39.25 322.82L0.500013 343.06C0.500013 343.06 -7.55999 354.06 43.94 336.06L44.13 335.99Z" fill="#6C63FF"/>
<path id="Vector_15" d="M191.27 274.17L216.8 261.72L208.5 244.72L183.5 256.92C183.791 263.451 186.572 269.624 191.27 274.17V274.17Z" fill="#6C63FF"/>
</g>
<path id="Vector_16" d="M243.57 689.37H206.42L218.22 251.84H231.77L243.57 689.37Z" fill="white"/>
</g>
<defs>
<clipPath id="clip0_1_44">
<rect width="453" height="689" fill="white"/>
</clipPath>
</defs>
</svg>
